<svg width="56" height="43" viewBox="0 0 56 43" fill="none" xmlns="http://www.w3.org/2000/svg">
<path d="M16.1 6.07812C16.1 8.91465 13.9037 11.2188 11.2 11.2188C8.49362 11.2188 6.3 8.91465 6.3 6.07812C6.3 3.23885 8.49362 0.9375 11.2 0.9375C13.9037 0.9375 16.1 3.23885 16.1 6.07812ZM18.235 16.0197C15.6362 18.4432 14 21.9773 14 25.9062C14 29.0549 14.9712 31.9465 16.8 34.2139V36.1875C16.8 37.8123 15.5487 39.125 14 39.125H8.4C6.85387 39.125 5.6 37.8123 5.6 36.1875V33.7273C2.289 32.075 0 28.5408 0 24.4375C0 18.7553 4.38725 14.1562 9.8 14.1562H12.6C14.6213 14.1562 16.6425 14.8447 18.235 16.0197ZM5.6 20.5545C4.7285 21.5826 4.2 22.9504 4.2 24.4375C4.2 25.9246 4.7285 27.2924 5.6 28.3205V20.5545ZM39.2 36.1875V34.2139C40.95 31.9465 42 29.0549 42 25.9062C42 21.9773 40.3638 18.4432 37.765 16.0197C39.3575 14.8447 41.3 14.1562 43.4 14.1562H46.2C51.6162 14.1562 56 18.7553 56 24.4375C56 28.5408 53.7075 32.075 50.4 33.7273V36.1875C50.4 37.8123 49.1488 39.125 47.6 39.125H42C40.4512 39.125 39.2 37.8123 39.2 36.1875ZM50.4 28.3205C51.1963 27.2924 51.8 25.9246 51.8 24.4375C51.8 22.9504 51.1963 21.5826 50.4 20.5545V28.3205ZM49.7 6.07812C49.7 8.91465 47.5037 11.2188 44.8 11.2188C42.0962 11.2188 39.9 8.91465 39.9 6.07812C39.9 3.23885 42.0962 0.9375 44.8 0.9375C47.5037 0.9375 49.7 3.23885 49.7 6.07812ZM22.4 6.8125C22.4 3.56748 24.9112 0.9375 28 0.9375C31.0887 0.9375 33.6 3.56748 33.6 6.8125C33.6 10.0529 31.0887 12.6875 28 12.6875C24.9112 12.6875 22.4 10.0529 22.4 6.8125ZM39.2 25.9062C39.2 30.0096 36.9075 33.5438 33.6 35.1961V39.125C33.6 40.7498 32.3488 42.0625 30.8 42.0625H25.2C23.6512 42.0625 22.4 40.7498 22.4 39.125V35.1961C19.0925 33.5438 16.8 30.0096 16.8 25.9062C16.8 20.224 21.1838 15.625 26.6 15.625H29.4C34.8162 15.625 39.2 20.224 39.2 25.9062ZM22.4 29.7893V22.0232C21.525 23.0514 21 24.4191 21 25.9062C21 27.3934 21.525 28.7611 22.4 29.7893ZM33.6 22.0232V29.7893C34.3962 28.752 35 27.3934 35 25.9062C35 24.4191 34.3962 23.0514 33.6 22.0232Z" fill="#FEFBFB"/>
</svg>
