<svg width="30" height="24" viewBox="0 0 30 24" fill="none" xmlns="http://www.w3.org/2000/svg">
<path d="M30 2.00025V22.0003C30 23.1353 29.1891 24.0003 28.125 24.0003H26.25V5.84925L15 14.4693L3.75 5.84925V24.0003H1.875C0.810938 24.0003 0 23.1353 0 22.0003V2.00025C0 1.43225 0.200625 0.932252 0.537188 0.578252C0.712474 0.391179 0.921234 0.243609 1.15106 0.144315C1.38088 0.0450201 1.62707 -0.00397184 1.875 0.000251575H2.50031L15 9.66725L27.4997 0.000251575H28.125C28.6575 0.000251575 29.1262 0.214252 29.4628 0.578252C29.7994 0.932252 30 1.43225 30 2.00025Z" fill="black"/>
</svg>
