<svg width="59" height="58" viewBox="0 0 59 58" fill="none" xmlns="http://www.w3.org/2000/svg">
<g filter="url(#filter0_d_250_61)">
<path d="M50.1248 11.4583C47.5811 10.6562 44.7853 10.3125 42.104 10.3125C37.6353 10.3125 32.8228 11.2292 29.4998 13.75C26.1769 11.2292 21.3644 10.3125 16.8957 10.3125C12.4269 10.3125 7.61442 11.2292 4.2915 13.75V47.3229C4.2915 47.8958 4.86442 48.4687 5.43734 48.4687C5.6665 48.4687 5.78109 48.3542 6.01025 48.3542C9.104 46.8646 13.5728 45.8333 16.8957 45.8333C21.3644 45.8333 26.1769 46.75 29.4998 49.2708C32.5936 47.3229 38.2082 45.8333 42.104 45.8333C45.8853 45.8333 49.7811 46.5208 52.9894 48.2396C53.2186 48.3542 53.3332 48.3542 53.5623 48.3542C54.1353 48.3542 54.7082 47.7812 54.7082 47.2083V13.75C53.3332 12.7187 51.8436 12.0312 50.1248 11.4583ZM50.1248 42.3958C47.604 41.5937 44.854 41.25 42.104 41.25C38.2082 41.25 32.5936 42.7396 29.4998 44.6875V18.3333C32.5936 16.3854 38.2082 14.8958 42.104 14.8958C44.854 14.8958 47.604 15.2396 50.1248 16.0417V42.3958Z" fill="white"/>
<path d="M42.104 24.0625C44.1207 24.0625 46.0686 24.2688 47.8332 24.6583V21.175C46.0228 20.8312 44.0748 20.625 42.104 20.625C38.2082 20.625 34.679 21.2896 31.7915 22.5271V26.3312C34.3811 24.8646 37.979 24.0625 42.104 24.0625ZM31.7915 28.6229V32.4271C34.3811 30.9604 37.979 30.1583 42.104 30.1583C44.1207 30.1583 46.0686 30.3646 47.8332 30.7542V27.2708C46.0228 26.9271 44.0748 26.7208 42.104 26.7208C38.2082 26.7208 34.679 27.4083 31.7915 28.6229ZM42.104 32.8396C38.2082 32.8396 34.679 33.5042 31.7915 34.7417V38.5458C34.3811 37.0792 37.979 36.2771 42.104 36.2771C44.1207 36.2771 46.0686 36.4833 47.8332 36.8729V33.3896C46.0228 33.0229 44.0748 32.8396 42.104 32.8396Z" fill="white"/>
</g>
<defs>
<filter id="filter0_d_250_61" x="-2" y="0" width="63" height="63" filterUnits="userSpaceOnUse" color-interpolation-filters="sRGB">
<feFlood flood-opacity="0" result="BackgroundImageFix"/>
<feColorMatrix in="SourceAlpha" type="matrix" values="0 0 0 0 0 0 0 0 0 0 0 0 0 0 0 0 0 0 127 0" result="hardAlpha"/>
<feOffset dy="4"/>
<feGaussianBlur stdDeviation="2"/>
<feComposite in2="hardAlpha" operator="out"/>
<feColorMatrix type="matrix" values="0 0 0 0 0 0 0 0 0 0 0 0 0 0 0 0 0 0 0.25 0"/>
<feBlend mode="normal" in2="BackgroundImageFix" result="effect1_dropShadow_250_61"/>
<feBlend mode="normal" in="SourceGraphic" in2="effect1_dropShadow_250_61" result="shape"/>
</filter>
</defs>
</svg>
