<svg width="61" height="61" viewBox="0 0 61 61" fill="none" xmlns="http://www.w3.org/2000/svg">
<path d="M21.3018 39.6374L39.6377 21.3015" stroke="white" stroke-width="5" stroke-linecap="round" stroke-linejoin="round"/>
<path d="M22.8297 24.3575C23.6736 24.3575 24.3577 23.6734 24.3577 22.8295C24.3577 21.9856 23.6736 21.3015 22.8297 21.3015C21.9859 21.3015 21.3018 21.9856 21.3018 22.8295C21.3018 23.6734 21.9859 24.3575 22.8297 24.3575Z" fill="white" stroke="white" stroke-width="5" stroke-linecap="round" stroke-linejoin="round"/>
<path d="M38.1095 39.6375C38.9534 39.6375 39.6375 38.9534 39.6375 38.1095C39.6375 37.2656 38.9534 36.5815 38.1095 36.5815C37.2656 36.5815 36.5815 37.2656 36.5815 38.1095C36.5815 38.9534 37.2656 39.6375 38.1095 39.6375Z" fill="white" stroke="white" stroke-width="5" stroke-linecap="round" stroke-linejoin="round"/>
<path d="M9.07756 15.8007C9.07756 14.0176 9.78589 12.3076 11.0467 11.0467C12.3076 9.78589 14.0176 9.07756 15.8007 9.07756H18.8567C20.6319 9.07655 22.3347 8.37347 23.5935 7.12173L25.7327 4.98255C26.3575 4.35424 27.1003 3.85563 27.9184 3.51539C28.7366 3.17515 29.6139 3 30.5 3C31.3861 3 32.2634 3.17515 33.0816 3.51539C33.8997 3.85563 34.6425 4.35424 35.2673 4.98255L37.4065 7.12173C38.6653 8.37347 40.3681 9.07655 42.1433 9.07756H45.1993C46.9824 9.07756 48.6924 9.78589 49.9533 11.0467C51.2141 12.3076 51.9224 14.0176 51.9224 15.8007V18.8567C51.9235 20.6319 52.6265 22.3347 53.8783 23.5935L56.0175 25.7327C56.6458 26.3575 57.1444 27.1003 57.4846 27.9184C57.8248 28.7366 58 29.6139 58 30.5C58 31.3861 57.8248 32.2634 57.4846 33.0816C57.1444 33.8997 56.6458 34.6425 56.0175 35.2673L53.8783 37.4065C52.6265 38.6653 51.9235 40.3681 51.9224 42.1433V45.1993C51.9224 46.9824 51.2141 48.6924 49.9533 49.9533C48.6924 51.2141 46.9824 51.9224 45.1993 51.9224H42.1433C40.3681 51.9235 38.6653 52.6265 37.4065 53.8783L35.2673 56.0175C34.6425 56.6458 33.8997 57.1444 33.0816 57.4846C32.2634 57.8248 31.3861 58 30.5 58C29.6139 58 28.7366 57.8248 27.9184 57.4846C27.1003 57.1444 26.3575 56.6458 25.7327 56.0175L23.5935 53.8783C22.3347 52.6265 20.6319 51.9235 18.8567 51.9224H15.8007C14.0176 51.9224 12.3076 51.2141 11.0467 49.9533C9.78589 48.6924 9.07756 46.9824 9.07756 45.1993V42.1433C9.07655 40.3681 8.37347 38.6653 7.12173 37.4065L4.98255 35.2673C4.35424 34.6425 3.85563 33.8997 3.51539 33.0816C3.17515 32.2634 3 31.3861 3 30.5C3 29.6139 3.17515 28.7366 3.51539 27.9184C3.85563 27.1003 4.35424 26.3575 4.98255 25.7327L7.12173 23.5935C8.37347 22.3347 9.07655 20.6319 9.07756 18.8567V15.8007" stroke="white" stroke-width="5" stroke-linecap="round" stroke-linejoin="round"/>
</svg>
