<svg width="49" height="58" viewBox="0 0 49 58" fill="none" xmlns="http://www.w3.org/2000/svg">
<path d="M5.54167 57.3333H43.4583C44.8949 57.3333 46.2727 56.7363 47.2885 55.6736C48.3043 54.6109 48.875 53.1696 48.875 51.6667V20.5C48.875 19.7485 48.5897 19.0279 48.0817 18.4965C47.5738 17.9652 46.885 17.6667 46.1667 17.6667H38.0417V15.4652C38.0417 8.073 32.8877 1.45433 25.8542 0.737496C23.9715 0.541747 22.0706 0.760448 20.2736 1.37953C18.4766 1.99861 16.8234 3.00436 15.4204 4.33207C14.0173 5.65979 12.8954 7.28006 12.127 9.08866C11.3585 10.8972 10.9604 12.8541 10.9583 14.8333V17.6667H2.83333C2.11504 17.6667 1.42616 17.9652 0.918252 18.4965C0.410341 19.0279 0.125 19.7485 0.125 20.5V51.6667C0.125 53.1696 0.695683 54.6109 1.7115 55.6736C2.72733 56.7363 4.10508 57.3333 5.54167 57.3333ZM38.0417 23.3333V29H32.625V23.3333H38.0417ZM16.375 14.8333C16.375 10.147 20.0204 6.33333 24.5 6.33333C28.9796 6.33333 32.625 10.147 32.625 14.8333V17.6667H16.375V14.8333ZM10.9583 23.3333H16.375V29H10.9583V23.3333Z" fill="#FFFEFE"/>
</svg>
